<svg width="72" height="72" viewBox="0 0 72 72" fill="none" xmlns="http://www.w3.org/2000/svg">
<circle cx="36" cy="36" r="36" fill="#ED4530"/>
<path d="M8.0104 34.7071L3.7071 39.0104L3 38.3033L7.3033 34H3.51041V33H9.0104V38.5H8.0104V34.7071Z" fill="white"/>
<path d="M19.733 35H18.8523C18.8002 34.7467 18.709 34.5241 18.5788 34.3324C18.451 34.1406 18.2947 33.9796 18.1101 33.8494C17.9278 33.7169 17.7254 33.6174 17.5028 33.5511C17.2803 33.4848 17.0483 33.4517 16.8068 33.4517C16.3665 33.4517 15.9676 33.563 15.6101 33.7855C15.255 34.008 14.9721 34.3359 14.7614 34.7692C14.553 35.2024 14.4489 35.7339 14.4489 36.3636C14.4489 36.9934 14.553 37.5249 14.7614 37.9581C14.9721 38.3913 15.255 38.7192 15.6101 38.9418C15.9676 39.1643 16.3665 39.2756 16.8068 39.2756C17.0483 39.2756 17.2803 39.2424 17.5028 39.1761C17.7254 39.1098 17.9278 39.0116 18.1101 38.8814C18.2947 38.7488 18.451 38.5866 18.5788 38.3949C18.709 38.2008 18.8002 37.9782 18.8523 37.7273H19.733C19.6667 38.099 19.5459 38.4316 19.3707 38.7251C19.1955 39.0187 18.9777 39.2685 18.7173 39.4744C18.4569 39.678 18.1645 39.8331 17.8402 39.9396C17.5182 40.0462 17.1738 40.0994 16.8068 40.0994C16.1866 40.0994 15.6349 39.9479 15.152 39.6449C14.669 39.3419 14.2891 38.911 14.0121 38.3523C13.7351 37.7936 13.5966 37.1307 13.5966 36.3636C13.5966 35.5966 13.7351 34.9337 14.0121 34.375C14.2891 33.8163 14.669 33.3854 15.152 33.0824C15.6349 32.7794 16.1866 32.6278 16.8068 32.6278C17.1738 32.6278 17.5182 32.6811 17.8402 32.7876C18.1645 32.8942 18.4569 33.0504 18.7173 33.2564C18.9777 33.46 19.1955 33.7086 19.3707 34.0021C19.5459 34.2933 19.6667 34.6259 19.733 35ZM22.6475 40.1278C22.3019 40.1278 21.9882 40.0627 21.7065 39.9325C21.4248 39.8 21.2011 39.6094 21.0353 39.3608C20.8696 39.1098 20.7868 38.8068 20.7868 38.4517C20.7868 38.1392 20.8483 37.8859 20.9714 37.6918C21.0945 37.4953 21.2591 37.3414 21.465 37.2301C21.671 37.1188 21.8983 37.036 22.1468 36.9815C22.3978 36.9247 22.6499 36.8797 22.9032 36.8466C23.2347 36.804 23.5034 36.772 23.7093 36.7507C23.9177 36.727 24.0692 36.688 24.1639 36.6335C24.2609 36.5791 24.3095 36.4844 24.3095 36.3494V36.321C24.3095 35.9706 24.2136 35.6984 24.0218 35.5043C23.8324 35.3101 23.5448 35.2131 23.1589 35.2131C22.7588 35.2131 22.4451 35.3007 22.2179 35.4759C21.9906 35.651 21.8308 35.8381 21.7385 36.0369L20.943 35.7528C21.085 35.4214 21.2744 35.1634 21.5112 34.9787C21.7503 34.7917 22.0107 34.6615 22.2924 34.5881C22.5765 34.5123 22.8559 34.4744 23.1305 34.4744C23.3057 34.4744 23.5069 34.4957 23.7342 34.5384C23.9638 34.5786 24.1852 34.6626 24.3983 34.7905C24.6137 34.9183 24.7924 35.1113 24.9345 35.3693C25.0765 35.6274 25.1475 35.973 25.1475 36.4062V40H24.3095V39.2614H24.2669C24.21 39.3797 24.1154 39.5064 23.9828 39.6413C23.8502 39.7763 23.6738 39.8911 23.4537 39.9858C23.2335 40.0805 22.9648 40.1278 22.6475 40.1278ZM22.7754 39.375C23.1068 39.375 23.3862 39.3099 23.6135 39.1797C23.8431 39.0495 24.0159 38.8814 24.1319 38.6754C24.2503 38.4695 24.3095 38.2528 24.3095 38.0256V37.2585C24.274 37.3011 24.1958 37.3402 24.0751 37.3757C23.9567 37.4089 23.8194 37.4384 23.6632 37.4645C23.5093 37.4882 23.359 37.5095 23.2122 37.5284C23.0678 37.545 22.9506 37.5592 22.8606 37.571C22.6428 37.5994 22.4392 37.6456 22.2498 37.7095C22.0628 37.7711 21.9113 37.8646 21.7953 37.9901C21.6816 38.1132 21.6248 38.2812 21.6248 38.4943C21.6248 38.7855 21.7325 39.0057 21.948 39.1548C22.1658 39.3016 22.4416 39.375 22.7754 39.375ZM30.5408 35.767L29.788 35.9801C29.7406 35.8546 29.6708 35.7327 29.5785 35.6143C29.4885 35.4936 29.3654 35.3942 29.2092 35.3161C29.0529 35.2379 28.8529 35.1989 28.609 35.1989C28.2752 35.1989 27.997 35.2758 27.7745 35.4297C27.5543 35.5812 27.4442 35.7741 27.4442 36.0085C27.4442 36.2169 27.52 36.3814 27.6715 36.5021C27.823 36.6229 28.0598 36.7235 28.3817 36.804L29.1914 37.0028C29.6791 37.1212 30.0425 37.3023 30.2816 37.5462C30.5207 37.7876 30.6403 38.099 30.6403 38.4801C30.6403 38.7926 30.5503 39.072 30.3704 39.3182C30.1928 39.5644 29.9442 39.7585 29.6246 39.9006C29.305 40.0426 28.9334 40.1136 28.5096 40.1136C27.9532 40.1136 27.4928 39.9929 27.1282 39.7514C26.7636 39.5099 26.5328 39.1572 26.4357 38.6932L27.2312 38.4943C27.3069 38.7879 27.4502 39.008 27.6609 39.1548C27.8739 39.3016 28.1521 39.375 28.4954 39.375C28.886 39.375 29.1961 39.2921 29.4258 39.1264C29.6578 38.9583 29.7738 38.7571 29.7738 38.5227C29.7738 38.3333 29.7075 38.1747 29.5749 38.0469C29.4424 37.9167 29.2388 37.8196 28.9641 37.7557L28.055 37.5426C27.5555 37.4242 27.1886 37.2408 26.9542 36.9922C26.7222 36.7412 26.6062 36.4276 26.6062 36.0511C26.6062 35.7434 26.6926 35.4711 26.8654 35.2344C27.0406 34.9976 27.2785 34.8118 27.5792 34.6768C27.8822 34.5419 28.2255 34.4744 28.609 34.4744C29.1488 34.4744 29.5726 34.5928 29.8803 34.8295C30.1905 35.0663 30.4106 35.3788 30.5408 35.767ZM34.1887 40.1136C33.6632 40.1136 33.2098 39.9976 32.8287 39.7656C32.4499 39.5312 32.1575 39.2045 31.9515 38.7855C31.7479 38.3641 31.6461 37.8741 31.6461 37.3153C31.6461 36.7566 31.7479 36.2642 31.9515 35.8381C32.1575 35.4096 32.444 35.0758 32.8109 34.8366C33.1802 34.5952 33.6111 34.4744 34.1035 34.4744C34.3876 34.4744 34.6681 34.5218 34.9451 34.6165C35.2221 34.7112 35.4743 34.8651 35.7015 35.0781C35.9288 35.2888 36.1099 35.5682 36.2449 35.9162C36.3798 36.2642 36.4473 36.6927 36.4473 37.2017V37.5568H32.2427V36.8324H35.595C35.595 36.5246 35.5334 36.25 35.4103 36.0085C35.2896 35.767 35.1168 35.5765 34.8919 35.4368C34.6693 35.2971 34.4065 35.2273 34.1035 35.2273C33.7697 35.2273 33.4809 35.3101 33.237 35.4759C32.9956 35.6392 32.8097 35.8523 32.6795 36.1151C32.5493 36.3778 32.4842 36.6596 32.4842 36.9602V37.4432C32.4842 37.8551 32.5552 38.2043 32.6973 38.4908C32.8417 38.7749 33.0417 38.9915 33.2974 39.1406C33.5531 39.2874 33.8502 39.3608 34.1887 39.3608C34.4089 39.3608 34.6078 39.33 34.7853 39.2685C34.9653 39.2045 35.1203 39.1098 35.2505 38.9844C35.3807 38.8565 35.4814 38.6979 35.5524 38.5085L36.362 38.7358C36.2768 39.0104 36.1336 39.2519 35.9324 39.4602C35.7311 39.6662 35.4825 39.8272 35.1866 39.9432C34.8907 40.0568 34.5581 40.1136 34.1887 40.1136ZM44.6255 34.5455C44.5829 34.1856 44.4101 33.9062 44.1071 33.7074C43.804 33.5085 43.4324 33.4091 42.992 33.4091C42.67 33.4091 42.3883 33.4612 42.1468 33.5653C41.9077 33.6695 41.7207 33.8127 41.5858 33.995C41.4532 34.1773 41.3869 34.3845 41.3869 34.6165C41.3869 34.8106 41.4331 34.9775 41.5254 35.1172C41.6201 35.2545 41.7408 35.3693 41.8876 35.4616C42.0344 35.5516 42.1883 35.6262 42.3493 35.6854C42.5102 35.7422 42.6582 35.7884 42.7931 35.8239L43.5318 36.0227C43.7212 36.0724 43.9319 36.1411 44.1639 36.2287C44.3983 36.3163 44.622 36.4358 44.835 36.5874C45.0505 36.7365 45.228 36.9283 45.3677 37.1626C45.5074 37.397 45.5772 37.6847 45.5772 38.0256C45.5772 38.4186 45.4743 38.7737 45.2683 39.0909C45.0647 39.4081 44.7664 39.6603 44.3734 39.8473C43.9828 40.0343 43.5081 40.1278 42.9494 40.1278C42.4286 40.1278 41.9776 40.0438 41.5964 39.8757C41.2176 39.7076 40.9193 39.4732 40.7015 39.1726C40.4861 38.8719 40.3642 38.5227 40.3358 38.125H41.2449C41.2685 38.3996 41.3609 38.6269 41.5218 38.8068C41.6852 38.9844 41.8912 39.117 42.1397 39.2045C42.3907 39.2898 42.6606 39.3324 42.9494 39.3324C43.2856 39.3324 43.5874 39.2779 43.8549 39.169C44.1225 39.0578 44.3343 38.9039 44.4906 38.7074C44.6468 38.5085 44.725 38.2765 44.725 38.0114C44.725 37.7699 44.6575 37.5734 44.5225 37.4219C44.3876 37.2704 44.21 37.1473 43.9899 37.0526C43.7697 36.9579 43.5318 36.875 43.2761 36.804L42.3812 36.5483C41.813 36.3849 41.3632 36.1518 41.0318 35.8487C40.7003 35.5457 40.5346 35.1491 40.5346 34.6591C40.5346 34.2519 40.6447 33.8968 40.8649 33.5938C41.0874 33.2884 41.3857 33.0516 41.7598 32.8835C42.1362 32.7131 42.5564 32.6278 43.0204 32.6278C43.4892 32.6278 43.9058 32.7119 44.2704 32.88C44.635 33.0457 44.9238 33.273 45.1369 33.5618C45.3523 33.8506 45.466 34.1785 45.4778 34.5455H44.6255ZM49.2837 34.5455V35.2557H46.457V34.5455H49.2837ZM47.2809 33.2386H48.119V38.4375C48.119 38.6742 48.1533 38.8518 48.2219 38.9702C48.293 39.0862 48.3829 39.1643 48.4918 39.2045C48.6031 39.2424 48.7203 39.2614 48.8434 39.2614C48.9357 39.2614 49.0115 39.2566 49.0707 39.2472C49.1299 39.2353 49.1772 39.2259 49.2127 39.2188L49.3832 39.9716C49.3263 39.9929 49.247 40.0142 49.1452 40.0355C49.0434 40.0592 48.9144 40.071 48.7582 40.071C48.5214 40.071 48.2894 40.0201 48.0621 39.9183C47.8372 39.8165 47.6502 39.6615 47.5011 39.4531C47.3543 39.2448 47.2809 38.982 47.2809 38.6648V33.2386ZM53.9819 37.7699V34.5455H54.82V40H53.9819V39.0767H53.9251C53.7972 39.3537 53.5984 39.5893 53.3285 39.7834C53.0586 39.9751 52.7177 40.071 52.3058 40.071C51.9648 40.071 51.6618 39.9964 51.3967 39.8473C51.1315 39.6958 50.9232 39.4685 50.7717 39.1655C50.6201 38.8601 50.5444 38.4754 50.5444 38.0114V34.5455H51.3825V37.9545C51.3825 38.3523 51.4937 38.6695 51.7163 38.9062C51.9412 39.143 52.2276 39.2614 52.5756 39.2614C52.784 39.2614 52.9959 39.2081 53.2113 39.1016C53.4291 38.995 53.6114 38.8317 53.7582 38.6115C53.9073 38.3913 53.9819 38.1108 53.9819 37.7699ZM58.4146 40.1136C57.96 40.1136 57.5588 39.9988 57.2108 39.7692C56.8627 39.5372 56.5905 39.2105 56.394 38.7891C56.1975 38.3653 56.0993 37.8646 56.0993 37.2869C56.0993 36.714 56.1975 36.2169 56.394 35.7955C56.5905 35.3741 56.8639 35.0485 57.2143 34.8189C57.5647 34.5893 57.9695 34.4744 58.4288 34.4744C58.7839 34.4744 59.0645 34.5336 59.2704 34.652C59.4788 34.768 59.6374 34.9006 59.7463 35.0497C59.8575 35.1965 59.944 35.3172 60.0055 35.4119H60.0765V32.7273H60.9146V40H60.1049V39.1619H60.0055C59.944 39.2614 59.8564 39.3868 59.7427 39.5384C59.6291 39.6875 59.4669 39.8213 59.2562 39.9396C59.0455 40.0556 58.765 40.1136 58.4146 40.1136ZM58.5282 39.3608C58.8644 39.3608 59.1485 39.2732 59.3805 39.098C59.6125 38.9205 59.7889 38.6754 59.9096 38.3629C60.0304 38.0481 60.0907 37.6847 60.0907 37.2727C60.0907 36.8655 60.0315 36.5092 59.9132 36.2038C59.7948 35.8961 59.6196 35.657 59.3876 35.4865C59.1556 35.3137 58.8691 35.2273 58.5282 35.2273C58.1731 35.2273 57.8772 35.3184 57.6404 35.5007C57.4061 35.6806 57.2297 35.9257 57.1113 36.2358C56.9953 36.5436 56.9373 36.8892 56.9373 37.2727C56.9373 37.661 56.9965 38.0137 57.1149 38.331C57.2356 38.6458 57.4132 38.8968 57.6475 39.0838C57.8843 39.2685 58.1779 39.3608 58.5282 39.3608ZM63.1056 42.0455C62.9636 42.0455 62.8369 42.0336 62.7257 42.0099C62.6144 41.9886 62.5375 41.9673 62.4949 41.946L62.7079 41.2074C62.9115 41.2595 63.0914 41.2784 63.2477 41.2642C63.4039 41.25 63.5424 41.1802 63.6632 41.0547C63.7863 40.9316 63.8987 40.7315 64.0005 40.4545L64.1568 40.0284L62.1397 34.5455H63.0488L64.5545 38.892H64.6113L66.117 34.5455H67.0261L64.7108 40.7955C64.6066 41.0772 64.4776 41.3104 64.3237 41.495C64.1698 41.6821 63.9911 41.8205 63.7875 41.9105C63.5862 42.0005 63.359 42.0455 63.1056 42.0455Z" fill="white"/>
</svg>
