<svg width="20" height="20" viewBox="0 0 20 20" fill="none" xmlns="http://www.w3.org/2000/svg">
<path d="M2.81329 8.48788L2.81575 8.33858L2.8158 8.33353C2.81624 7.41117 3.08898 6.50947 3.59982 5.74148C4.11066 4.9735 4.83686 4.37343 5.68736 4.0165C6.53786 3.65958 7.47481 3.56169 8.38072 3.73511C9.28664 3.90853 10.1213 4.34566 10.7799 4.99147C10.9414 5.14974 10.9293 5.44894 10.6875 5.62621C10.4679 5.78721 10.1129 5.75654 9.83271 5.52387C9.2994 5.08055 8.65081 4.79837 7.9629 4.7104C7.27499 4.62243 6.57626 4.7323 5.94855 5.02715C5.32084 5.322 4.79015 5.78962 4.41864 6.37523C4.04713 6.96084 3.85019 7.64019 3.85088 8.3337L3.85089 8.33548C3.85262 8.59542 3.69298 8.79402 3.50447 8.83211L3.3488 8.86291C3.0449 8.9238 2.81361 8.72042 2.81329 8.48788Z" fill="black"/>
<path fill-rule="evenodd" clip-rule="evenodd" d="M15.3067 11.1492H15.8333C16.8547 11.1492 17.8341 11.5549 18.5563 12.2771C19.2785 12.9992 19.6842 13.9787 19.6842 15C19.6842 16.0214 19.2785 17.0008 18.5563 17.723C17.8341 18.4452 16.8547 18.8509 15.8333 18.8509H4.16667C3.14536 18.8509 2.16587 18.4452 1.44369 17.723C0.721512 17.0008 0.315796 16.0214 0.315796 15C0.315796 13.9787 0.721512 12.9992 1.44369 12.2771C2.16587 11.5549 3.14536 11.1492 4.16667 11.1492H4.69334C5.18745 11.1492 5.59584 10.8345 5.79516 10.4284C6.18107 9.64226 6.77961 8.98008 7.52285 8.51697C8.2661 8.05386 9.12428 7.80838 10 7.80838C10.8757 7.80838 11.7339 8.05386 12.4772 8.51697C13.2204 8.98008 13.8189 9.64226 14.2049 10.4284C14.4042 10.8345 14.8126 11.1492 15.3067 11.1492ZM6.2457 12.0679C6.15388 12.1432 6.03882 12.1843 5.9201 12.1843H4.16667C3.41988 12.1843 2.70367 12.4809 2.17561 13.009C1.64755 13.537 1.35088 14.2533 1.35088 15C1.35088 15.7468 1.64755 16.463 2.17561 16.9911C2.70367 17.5192 3.41988 17.8158 4.16667 17.8158H15.8333C16.5801 17.8158 17.2963 17.5192 17.8244 16.9911C18.3525 16.463 18.6491 15.7468 18.6491 15C18.6491 14.2533 18.3525 13.537 17.8244 13.009C17.2963 12.4809 16.5801 12.1843 15.8333 12.1843H14.08C13.8354 12.1843 13.6241 12.0103 13.5761 11.7705C13.4086 10.9456 12.9611 10.204 12.3094 9.67129C11.6576 9.13859 10.8418 8.84758 10 8.84758C9.15826 8.84758 8.3424 9.13859 7.69065 9.67129C7.03891 10.204 6.59118 10.9466 6.42367 11.7715C6.40041 11.8879 6.33751 11.9927 6.2457 12.0679Z" fill="black"/>
<path d="M8.01755 1.66671C8.01755 1.80397 7.96302 1.93561 7.86597 2.03267C7.76891 2.12973 7.63727 2.18426 7.50001 2.18426C7.36275 2.18426 7.23111 2.12973 7.13405 2.03267C7.03699 1.93561 6.98246 1.80397 6.98246 1.66671C6.98246 1.52945 7.03699 1.39781 7.13405 1.30075C7.23111 1.2037 7.36275 1.14917 7.50001 1.14917C7.63727 1.14917 7.76891 1.2037 7.86597 1.30075C7.96302 1.39781 8.01755 1.52945 8.01755 1.66671Z" fill="black"/>
<path d="M1.35088 8.33338C1.35088 8.47064 1.29636 8.60228 1.1993 8.69934C1.10224 8.7964 0.970601 8.85092 0.83334 8.85092C0.696079 8.85092 0.564439 8.7964 0.467381 8.69934C0.370323 8.60228 0.315796 8.47064 0.315796 8.33338C0.315796 8.19612 0.370323 8.06448 0.467381 7.96742C0.564439 7.87036 0.696079 7.81584 0.83334 7.81584C0.970601 7.81584 1.10224 7.87036 1.1993 7.96742C1.29636 8.06448 1.35088 8.19612 1.35088 8.33338Z" fill="black"/>
<path d="M3.15171 3.98508C3.05456 4.08223 2.92281 4.1368 2.78542 4.1368C2.64804 4.1368 2.51628 4.08223 2.41914 3.98508C2.32199 3.88794 2.26742 3.75618 2.26742 3.6188C2.26742 3.48141 2.32199 3.34966 2.41914 3.25251C2.51628 3.15537 2.64804 3.10079 2.78542 3.10079C2.92281 3.10079 3.05456 3.15537 3.15171 3.25251C3.24885 3.34966 3.30343 3.48141 3.30343 3.6188C3.30343 3.75618 3.24885 3.88794 3.15171 3.98508Z" fill="black"/>
<path d="M12.2064 3.11554C12.0732 3.11356 11.9444 3.16295 11.8467 3.25335C11.8001 3.30075 11.7631 3.35667 11.7377 3.41806C11.7116 3.48091 11.6982 3.54827 11.6982 3.6163C11.6982 3.68432 11.7116 3.75168 11.7377 3.81453C11.7637 3.87738 11.8019 3.93448 11.85 3.98258C11.8981 4.03068 11.9552 4.06884 12.018 4.09487C12.0809 4.12091 12.1482 4.1343 12.2163 4.1343C12.2843 4.1343 12.3516 4.12091 12.4145 4.09487C12.4759 4.06944 12.5318 4.03244 12.5792 3.98589C12.6696 3.88818 12.719 3.75937 12.717 3.62614C12.715 3.49135 12.6606 3.36264 12.5652 3.26731C12.4699 3.17199 12.3412 3.11755 12.2064 3.11554Z" fill="black"/>
</svg>
