<svg width="44" height="55" viewBox="0 0 44 55" fill="none" xmlns="http://www.w3.org/2000/svg">

<style>

 path {

    fill: #7A00FC;
 }

@media (prefers-color-scheme :dark) {
    
  path {

    fill: #fff;
 }
}
</style>

<path d="M6.85071 24.9712C4.81525 24.9712 3.10538 23.4426 2.86853 21.4209C2.53559 18.5791 2.18495 15.7076 1.81659 12.8067C1.36615 9.25924 0.853928 5.5969 0.279917 1.81964C0.134581 0.86326 0.873568 0 1.84093 0V0C2.66957 0 3.35637 0.641495 3.39792 1.4691C3.41697 1.84866 3.43603 2.26268 3.45508 2.71116C3.52632 3.82892 3.60943 5.01802 3.70442 6.27847C3.7994 7.51514 3.89439 8.68046 3.98937 9.77444C4.10811 10.8446 4.23871 11.677 4.38119 12.2716C4.47617 12.6521 4.65427 12.9375 4.91548 13.1277C5.20043 13.318 5.75847 13.4488 6.58959 13.5201C7.42071 13.5677 8.70301 13.5915 10.4365 13.5915C12.1937 13.5915 13.476 13.5677 14.2834 13.5201C15.1145 13.4488 15.6725 13.318 15.9575 13.1277C16.2425 12.9375 16.4206 12.6521 16.4918 12.2716C16.6343 11.677 16.753 10.8446 16.848 9.77444C16.9667 8.68046 17.0736 7.51514 17.1686 6.27847C17.2635 5.01802 17.3467 3.82892 17.4179 2.71116C17.4458 2.27406 17.47 1.86968 17.4906 1.49804C17.5369 0.66276 18.2237 0 19.0602 0V0C20.0128 0 20.7405 0.850044 20.5973 1.79178C20.0216 5.57889 19.5079 9.25052 19.0564 12.8067C18.7038 15.7153 18.3572 18.5943 18.0166 21.4435C17.776 23.4557 16.0698 24.9712 14.0433 24.9712H6.85071Z" fill="#7A00FC"/>
<path d="M23.5524 24.9712C22.7373 24.9712 22.1106 24.2511 22.2154 23.4427C22.482 21.388 22.7105 19.3409 22.9008 17.3015C23.162 14.733 23.3876 12.0456 23.5775 9.23934C23.6925 7.52711 23.7987 5.72347 23.8963 3.82842C24.0064 1.68863 25.7661 0 27.9087 0H37.4123C39.5549 0 41.3146 1.68863 41.4247 3.82842C41.5223 5.72347 41.6285 7.52711 41.7435 9.23934C41.9334 12.0456 42.159 14.733 42.4202 17.3015C42.6297 19.3426 42.8622 21.3914 43.1175 23.4478C43.2179 24.2558 42.5893 24.9712 41.7751 24.9712V24.9712C41.0298 24.9712 40.4255 24.3669 40.4255 23.6216C40.4255 23.6077 40.4255 23.5938 40.4255 23.5799C40.4255 22.9854 40.378 22.4503 40.2831 21.9746C40.2118 21.4752 39.9981 21.1066 39.6419 20.8688C39.5469 20.7974 39.4044 20.738 39.2145 20.6904C39.0483 20.6191 38.7277 20.5596 38.2528 20.512C37.8016 20.4407 37.1248 20.3931 36.2224 20.3694C35.3438 20.3218 34.1565 20.298 32.6605 20.298C31.1645 20.298 29.9653 20.3218 29.0629 20.3694C28.1843 20.3931 27.5076 20.4407 27.0326 20.512C26.5815 20.5596 26.2609 20.6191 26.0709 20.6904C25.9047 20.738 25.7741 20.7974 25.6791 20.8688C25.3466 21.1066 25.1329 21.4752 25.0379 21.9746C24.943 22.4503 24.8955 22.9854 24.8955 23.5799C24.8955 23.5958 24.8955 23.6118 24.8955 23.6281C24.8955 24.3698 24.2942 24.9712 23.5524 24.9712V24.9712ZM32.6605 12.4499C33.5154 12.4499 34.299 12.438 35.0114 12.4142C35.7238 12.3905 36.353 12.3548 36.8992 12.3072C37.4691 12.2359 37.944 12.1408 38.324 12.0218C38.7039 11.9029 39.0008 11.7365 39.2145 11.5224C39.3332 11.4035 39.4163 11.2846 39.4638 11.1657C39.5113 11.023 39.535 10.8327 39.535 10.5949C39.535 10.476 39.5232 10.369 39.4994 10.2739C39.4994 10.1787 39.4876 10.0955 39.4638 10.0241C39.4401 9.9528 39.4044 9.89335 39.357 9.84578C39.3095 9.77444 39.262 9.71498 39.2145 9.66742C38.9533 9.38203 38.514 9.17988 37.8966 9.06097C37.3029 8.91828 36.5549 8.83504 35.6525 8.81126C34.7739 8.7637 33.7766 8.73992 32.6605 8.73992C31.5444 8.73992 30.5352 8.7637 29.6329 8.81126C28.7542 8.83504 28.0181 8.91828 27.4244 9.06097C26.8308 9.17988 26.3915 9.38203 26.1065 9.66742C26.059 9.71498 26.0115 9.77444 25.964 9.84578C25.9166 9.89335 25.8809 9.9528 25.8572 10.0241C25.8334 10.0955 25.8097 10.1787 25.786 10.2739C25.786 10.369 25.786 10.476 25.786 10.5949C25.786 10.8327 25.8097 11.023 25.8572 11.1657C25.9284 11.2846 26.0115 11.4035 26.1065 11.5224C26.3202 11.7365 26.6171 11.9029 26.997 12.0218C27.377 12.1408 27.84 12.2359 28.3862 12.3072C28.9561 12.3548 29.5972 12.3905 30.3096 12.4142C31.022 12.438 31.8056 12.4499 32.6605 12.4499Z" fill="#7A00FC"/>
<path d="M10.0091 55C8.15685 55 6.61334 54.8335 5.37853 54.5006C4.14373 54.1438 3.17013 53.5493 2.45774 52.7169C1.7691 51.8608 1.27043 50.6954 0.961724 49.221C0.676769 47.7227 0.534291 45.8439 0.534291 43.5846C0.534291 42.6571 0.534291 41.8723 0.534291 41.2302C0.534291 40.5881 0.534291 39.9697 0.534291 39.3752C0.534291 38.7568 0.522418 38.0553 0.498672 37.2705C0.498672 36.4619 0.486799 35.463 0.463052 34.2739C0.463052 33.4053 0.456963 32.372 0.444783 31.174C0.436382 30.3477 1.103 29.6721 1.92936 29.6721V29.6721C2.76486 29.6721 3.4354 30.362 3.41157 31.1972C3.37858 32.3536 3.3456 33.5099 3.31261 34.6663C3.28886 36.3073 3.27699 37.9601 3.27699 39.6249C3.27699 40.4097 3.33635 41.028 3.45508 41.4799C3.57381 41.9317 3.8469 42.2647 4.27433 42.4787C4.72551 42.6928 5.40228 42.8355 6.30464 42.9068C7.207 42.9782 8.4418 43.0138 10.0091 43.0138C11.5763 43.0138 12.8111 42.9782 13.7135 42.9068C14.6396 42.8355 15.3163 42.6928 15.7438 42.4787C16.195 42.2647 16.4799 41.9317 16.5986 41.4799C16.7174 41.028 16.7767 40.4097 16.7767 39.6249C16.7767 37.9601 16.753 36.3073 16.7055 34.6663C16.689 33.51 16.6668 32.3537 16.6388 31.1974C16.6186 30.3621 17.2889 29.6721 18.1245 29.6721V29.6721C18.9508 29.6721 19.6179 30.3475 19.6064 31.1738C19.5893 32.3975 19.5722 33.4546 19.5551 34.3453C19.5551 35.5582 19.5432 36.5689 19.5194 37.3775C19.5194 38.1861 19.5194 38.9114 19.5194 39.5535C19.5194 40.1719 19.5194 40.814 19.5194 41.4799C19.5194 42.122 19.5194 42.9187 19.5194 43.87C19.5194 46.0342 19.3532 47.8416 19.0208 49.2923C18.7121 50.7192 18.1896 51.8489 17.4535 52.6813C16.7411 53.5136 15.7675 54.1082 14.5327 54.4649C13.3217 54.8216 11.8138 55 10.0091 55Z" fill="#7A00FC"/>
<path d="M23.7556 54.6433C22.6479 54.6433 21.8722 53.5491 22.237 52.5032C22.6909 51.2021 23.0825 50.0724 23.412 49.1139C23.9106 47.6394 24.3025 46.4622 24.5874 45.5823C24.8961 44.7024 25.1217 44.0246 25.2642 43.5489C25.4067 43.0733 25.4898 42.7166 25.5135 42.4787C25.561 42.2171 25.5848 41.9793 25.5848 41.7653C25.5848 41.5512 25.561 41.3253 25.5135 41.0875C25.4898 40.8497 25.4185 40.5048 25.2998 40.053C25.1811 39.6011 24.9911 38.959 24.7299 38.1266C24.4924 37.2942 24.1481 36.2003 23.6969 34.8447C23.421 33.9695 23.0906 32.9406 22.7057 31.7581C22.371 30.7297 23.136 29.6721 24.2175 29.6721V29.6721C24.9878 29.6721 25.6452 30.2252 25.79 30.9818C25.9647 31.8945 26.1337 32.6946 26.2971 33.3821C26.5346 34.3809 26.8908 35.0825 27.3657 35.4868C27.6032 35.6771 28.0069 35.8198 28.5768 35.9149C29.1704 36.01 29.8353 36.0695 30.5715 36.0932C31.3076 36.117 32.0319 36.1289 32.7443 36.1289C33.4567 36.1289 34.1809 36.117 34.917 36.0932C35.6532 36.0695 36.3062 36.01 36.8761 35.9149C37.4698 35.8198 37.8853 35.6771 38.1228 35.4868C38.5977 35.0825 38.9539 34.3809 39.1914 33.3821C39.3695 32.7008 39.5422 31.9089 39.7093 31.0063C39.8514 30.2391 40.513 29.6721 41.2932 29.6721V29.6721C42.3686 29.6721 43.1336 30.718 42.8044 31.7417C42.4218 32.9311 42.0842 33.9654 41.7916 34.8447C41.3404 36.2003 40.9842 37.2942 40.723 38.1266C40.4855 38.959 40.3075 39.6011 40.1887 40.053C40.07 40.5048 39.9869 40.8497 39.9394 41.0875C39.9156 41.3253 39.9038 41.5512 39.9038 41.7653C39.9038 41.9793 39.9156 42.2171 39.9394 42.4787C39.9869 42.7166 40.0819 43.0733 40.2243 43.5489C40.3668 44.0246 40.5805 44.7024 40.8655 45.5823C41.1742 46.4622 41.5779 47.6394 42.0765 49.1139C42.406 50.0724 42.7977 51.2021 43.2515 52.5032C43.6164 53.5491 42.8407 54.6433 41.7329 54.6433V54.6433C40.9934 54.6433 40.3506 54.1381 40.1658 53.422C39.7968 51.9926 39.472 50.8658 39.1914 50.0414C38.8589 48.995 38.4552 48.2459 37.9803 47.794C37.6954 47.5086 37.3392 47.3184 36.9117 47.2233C36.508 47.1044 35.9738 47.033 35.3089 47.0092C34.644 46.9854 33.7891 46.9736 32.7443 46.9736C31.6994 46.9736 30.8446 46.9854 30.1797 47.0092C29.5148 47.033 28.9805 47.1044 28.5768 47.2233C28.1731 47.3184 27.8169 47.5086 27.5082 47.794C27.0333 48.2459 26.6177 48.995 26.2615 50.0414C25.9997 50.8657 25.6862 51.9924 25.3212 53.4216C25.1382 54.1382 24.4952 54.6433 23.7556 54.6433V54.6433Z" fill="#7A00FC"/>
</svg>
